<?xml version="1.0" standalone="no"?>
<!DOCTYPE svg PUBLIC "-//W3C//DTD SVG 20010904//EN"
 "http://www.w3.org/TR/2001/REC-SVG-20010904/DTD/svg10.dtd">
<svg version="1.0" xmlns="http://www.w3.org/2000/svg"
 width="565.000000pt" height="548.000000pt" viewBox="0 0 565.000000 548.000000"
 preserveAspectRatio="xMidYMid meet">

<g transform="translate(0.000000,548.000000) scale(0.100000,-0.100000)"
fill="#000000" stroke="none">
<path d="M483 5045 c-44 -19 -61 -50 -80 -146 -20 -110 -13 -323 18 -519 20
-119 24 -182 23 -350 0 -233 -10 -302 -75 -532 -70 -244 -79 -301 -79 -508 -1
-369 -11 -404 -259 -875 -25 -48 -26 -59 -29 -226 -2 -100 1 -201 7 -235 22
-119 75 -184 162 -199 67 -11 85 -36 130 -180 60 -189 62 -256 14 -490 -31
-151 -36 -194 -32 -265 5 -102 32 -171 85 -223 76 -73 255 -182 348 -213 83
-27 99 -29 244 -28 147 0 160 2 249 32 116 40 177 41 314 6 200 -51 243 -55
897 -84 442 -19 533 -14 742 46 171 49 250 53 352 20 44 -15 101 -26 131 -26
29 0 198 20 376 45 178 25 451 61 606 80 155 20 310 44 345 55 177 54 234 185
176 403 -28 106 -27 245 1 462 48 372 54 457 60 867 l6 406 40 59 c31 44 63
73 137 123 138 92 146 108 118 228 -9 42 -20 131 -23 197 -3 66 -9 128 -13
138 -6 16 -8 16 -24 2 -19 -18 -30 -11 -30 20 0 12 -8 29 -19 39 -17 16 -19
15 -30 -13 -7 -16 -23 -39 -35 -50 l-23 -22 -7 31 c-3 18 -10 29 -16 25 -6 -3
-13 1 -16 10 -5 11 -10 13 -19 5 -10 -8 -14 -7 -17 5 -2 10 -21 -9 -53 -52
l-50 -67 -7 41 c-3 22 -18 63 -31 89 l-24 48 -19 -34 c-15 -31 -18 -33 -23
-15 -8 27 -38 25 -60 -4 l-18 -24 -6 38 c-3 20 -30 72 -58 115 l-53 79 -17
-38 c-22 -49 -39 -61 -39 -27 0 14 -4 26 -10 26 -5 0 -10 7 -10 15 0 21 -7 19
-59 -18 -72 -51 -69 -51 -64 -2 4 35 -1 57 -26 111 -27 58 -33 65 -47 53 -9
-7 -18 -9 -22 -3 -14 19 -39 7 -86 -44 l-50 -53 -18 23 c-10 13 -23 39 -29 58
-17 51 -19 53 -35 33 -8 -11 -13 -13 -14 -5 0 18 -20 15 -20 -4 0 -8 -5 -12
-10 -9 -6 3 -13 -1 -16 -9 -15 -40 -55 8 -70 83 -6 31 -14 37 -28 24 -10 -10
-46 -11 -46 -1 0 19 -30 6 -55 -23 -25 -30 -27 -31 -40 -13 -16 21 -21 43 -30
128 l-7 58 -29 -28 c-23 -22 -29 -24 -29 -11 0 23 -17 21 -30 -3 -6 -11 -15
-18 -20 -15 -5 3 -12 0 -16 -6 -5 -9 -11 -6 -21 7 -12 16 -15 17 -23 4 -5 -8
-11 -19 -13 -25 -6 -15 -45 35 -57 73 -14 38 -24 40 -46 7 -18 -28 -34 -25
-34 7 0 16 -3 18 -14 9 -11 -9 -15 -9 -20 1 -5 10 -7 10 -12 1 -11 -24 -24
-13 -24 21 0 19 -5 38 -11 41 -20 13 -90 -45 -110 -91 l-20 -44 -54 107 c-30
59 -55 116 -55 127 0 19 -1 19 -13 1 -13 -17 -14 -17 -20 5 -6 23 -7 23 -27 5
-20 -18 -20 -18 -20 6 -1 22 -1 23 -11 5 -9 -14 -13 -15 -19 -5 -6 9 -11 5
-15 -14 -4 -15 -11 -27 -16 -27 -11 0 -61 76 -79 121 l-13 31 -23 -29 -23 -28
-1 28 c0 24 -3 27 -20 22 -16 -5 -20 -2 -20 16 0 18 -2 19 -15 9 -12 -10 -15
-10 -15 4 0 24 -12 20 -58 -20 l-42 -35 -9 23 c-5 13 -12 38 -16 57 l-7 33
-18 -27 c-16 -24 -18 -25 -24 -8 -7 17 -8 17 -22 -1 -13 -18 -14 -18 -14 -2 0
32 -19 6 -36 -49 -10 -30 -20 -55 -23 -55 -13 1 -73 105 -78 136 -4 27 -10 33
-27 31 -16 -1 -22 4 -24 25 -2 19 -8 25 -18 21 -9 -3 -14 1 -14 11 0 11 -7 16
-17 14 -12 -2 -17 3 -15 14 3 21 -16 34 -31 19 -17 -17 -27 -13 -27 11 0 30
-13 15 -48 -55 -33 -65 -37 -64 -75 23 l-24 54 -16 -29 c-10 -19 -16 -24 -17
-13 0 9 -5 29 -10 43 -8 20 -14 25 -23 17 -23 -19 -50 -7 -62 27 l-10 32 -25
-26 -25 -26 -22 25 c-22 27 -53 113 -53 150 0 18 -3 17 -30 -9 l-31 -29 -6 22
-6 23 -22 -21 c-22 -21 -24 -21 -33 -3 -10 17 -11 17 -26 -2 -15 -19 -15 -19
-16 8 0 36 -21 35 -94 -1 l-56 -29 0 38 c0 30 -3 37 -15 33 -10 -4 -15 0 -15
11 0 9 -4 14 -9 11 -5 -4 -11 0 -14 6 -4 10 -7 11 -18 1 -21 -20 -30 -15 -23
12 8 30 -5 32 -40 4 l-26 -20 0 25 c0 37 -39 35 -83 -4 l-34 -30 -17 43 c-9
23 -16 48 -16 55 0 19 -12 14 -47 -20 l-33 -32 0 54 c0 52 0 53 -19 36 -19
-18 -20 -17 -28 15 l-9 32 -20 -32 -21 -32 -15 23 c-21 33 -38 86 -38 119 0
34 -5 35 -45 9 -41 -27 -55 -25 -55 8 l-1 27 -18 -22 c-25 -30 -31 -29 -31 5
-1 24 -2 25 -14 10 -17 -23 -26 -23 -26 0 0 10 -3 21 -6 25 -12 12 -64 -24
-80 -55 l-17 -32 -19 39 c-11 21 -23 65 -26 97 l-5 59 -28 -27 c-28 -27 -29
-27 -29 -6 0 30 -12 28 -32 -5 l-17 -28 -1 25 0 25 -20 -25 -20 -25 0 39 0 38
-37 -7 c-21 -4 -55 -15 -76 -25 l-38 -19 4 34 c4 32 3 34 -17 29 -19 -4 -24 0
-32 30 -9 35 -9 35 -41 21z"/>
</g>
</svg>
